<svg width="52" height="52" viewBox="0 0 52 52" fill="none" xmlns="http://www.w3.org/2000/svg">
<path d="M26 0C11.664 0 0 11.663 0 26C0 40.337 11.664 52 26 52C40.336 52 52 40.337 52 26C52 11.663 40.336 0 26 0ZM26 50C12.767 50 2 39.233 2 26C2 12.767 12.767 2 26 2C39.233 2 50 12.767 50 26C50 39.233 39.233 50 26 50Z" fill="#E5E5E5"/>
<path d="M38.252 15.336L22.883 32.626L13.624 25.219C13.194 24.874 12.563 24.945 12.219 25.375C11.874 25.807 11.944 26.436 12.375 26.781L22.375 34.781C22.559 34.928 22.78 35 23 35C23.276 35 23.551 34.886 23.748 34.664L39.748 16.664C40.115 16.252 40.078 15.619 39.665 15.253C39.251 14.885 38.62 14.922 38.252 15.336Z" fill="#E5E5E5"/>
</svg>
