<svg width="45" height="56" viewBox="0 0 45 56" fill="none" xmlns="http://www.w3.org/2000/svg">
<path d="M14.8444 20.0738C14.1277 20.0738 13.5468 20.6547 13.5468 21.3714V45.8955C13.5468 46.6117 14.1277 47.1931 14.8444 47.1931C15.5611 47.1931 16.142 46.6117 16.142 45.8955V21.3714C16.142 20.6547 15.5611 20.0738 14.8444 20.0738Z" fill="#E5E5E5"/>
<path d="M30.1557 20.0739C29.439 20.0739 28.8581 20.6548 28.8581 21.3715V45.8956C28.8581 46.6118 29.439 47.1932 30.1557 47.1932C30.8724 47.1932 31.4532 46.6118 31.4532 45.8956V21.3715C31.4532 20.6548 30.8724 20.0739 30.1557 20.0739Z" fill="#E5E5E5"/>
<path d="M3.6853 16.495V48.4642C3.6853 50.3538 4.37818 52.1284 5.58856 53.4016C6.79337 54.6784 8.47007 55.4032 10.2248 55.4062H34.7752C36.5304 55.4032 38.2071 54.6784 39.4114 53.4016C40.6218 52.1284 41.3147 50.3538 41.3147 48.4642V16.495C43.7208 15.8563 45.2799 13.5319 44.958 11.0629C44.6357 8.59452 42.5327 6.74802 40.043 6.74751H33.3996V5.12555C33.4072 3.76159 32.8679 2.45186 31.9023 1.48832C30.9367 0.525279 29.625 -0.0109805 28.261 0.000170489H16.739C15.375 -0.0109805 14.0633 0.525279 13.0977 1.48832C12.1321 2.45186 11.5928 3.76159 11.6004 5.12555V6.74751H4.95701C2.46731 6.74802 0.364341 8.59452 0.0419769 11.0629C-0.27988 13.5319 1.27923 15.8563 3.6853 16.495V16.495ZM34.7752 52.8111H10.2248C8.00629 52.8111 6.28043 50.9053 6.28043 48.4642V16.609H38.7196V48.4642C38.7196 50.9053 36.9937 52.8111 34.7752 52.8111ZM14.1956 5.12555C14.187 4.44991 14.4526 3.79961 14.9321 3.32265C15.411 2.84569 16.0629 2.58364 16.739 2.5953H28.261C28.9371 2.58364 29.589 2.84569 30.068 3.32265C30.5474 3.7991 30.813 4.44991 30.8044 5.12555V6.74751H14.1956V5.12555ZM4.95701 9.34264H40.043C41.333 9.34264 42.3786 10.3883 42.3786 11.6783C42.3786 12.9682 41.333 14.0139 40.043 14.0139H4.95701C3.66705 14.0139 2.6214 12.9682 2.6214 11.6783C2.6214 10.3883 3.66705 9.34264 4.95701 9.34264V9.34264Z" fill="#E5E5E5"/>
<path d="M22.5 20.0739C21.7833 20.0739 21.2025 20.6548 21.2025 21.3715V45.8956C21.2025 46.6118 21.7833 47.1932 22.5 47.1932C23.2167 47.1932 23.7976 46.6118 23.7976 45.8956V21.3715C23.7976 20.6548 23.2167 20.0739 22.5 20.0739Z" fill="#E5E5E5"/>
</svg>
